<?xml version="1.0" encoding="utf-8"?>
<!-- Generator: Adobe Illustrator 21.1.0, SVG Export Plug-In . SVG Version: 6.00 Build 0)  -->
<svg version="1.1" id="Calque_1" xmlns="http://www.w3.org/2000/svg" xmlns:xlink="http://www.w3.org/1999/xlink" x="0px" y="0px"
	 viewBox="0 0 432 432" style="enable-background:new 0 0 432 432;" xml:space="preserve">
<style type="text/css">
	.st0{fill:#1B1B1B;}
	.st1{fill:#C58772;}
	.st2{fill:#D6B970;}
	.st3{fill:#D87C50;}
	.st4{fill:#C45C77;}
	.st5{fill:#7FAADB;}
	.st6{fill:#343434;}
	.st7{fill:#BF7861;}
	.st8{fill:#868E99;}
	.st9{fill:#BFBB60;}
	.st10{fill:#DCB583;}
	.st11{fill:#936660;}
	.st12{fill:#CCAEA3;}
	.st13{fill:#434552;}
	.st14{fill:#CDCCCC;}
	.st15{fill:#D4B0A5;}
	.st16{fill:#779AC5;}
	.st17{fill:#469A5F;}
	.st18{fill:#746458;}
	.st19{fill:#8A4F3B;}
	.st20{fill:#020203;}
	.st21{fill:#808955;}
	.st22{fill:#92634B;}
	.st23{fill:#DDB459;}
	.st24{fill:#C1292E;}
	.st25{fill:#5A8A70;}
	.st26{fill:#CC8F7A;}
	.st27{fill:#778092;}
	.st28{fill:#BE7D67;}
	.st29{fill:#67734A;}
	.st30{fill:#C7A866;}
	.st31{fill:#B78675;}
	.st32{fill:#CEB961;}
	.st33{fill:#9699AA;}
	.st34{fill:#9B637F;}
	.st35{fill:#C5809F;}
	.st36{fill:#D1A0A2;}
	.st37{fill:#CE7C61;}
	.st38{fill:#D69883;}
	.st39{fill:#598684;}
	.st40{fill:#AFD9C7;}
	.st41{fill:#CF6185;}
	.st42{fill:#F6B8C6;}
	.st43{fill:#E98652;}
	.st44{fill:#E8AF53;}
	.st45{fill:#ED9E84;}
	.st46{fill:#E97853;}
	.st47{fill:#EE7093;}
	.st48{fill:#F5A579;}
	.st49{fill:#FED385;}
	.st50{fill:#1B2C4D;}
	.st51{fill:#65C2CB;}
	.st52{fill:#93C243;}
	.st53{fill:#EDBA66;}
	.st54{fill:#A0AB7B;}
	.st55{fill:#EE7238;}
	.st56{fill:#0C4687;}
	.st57{fill:#92A8D1;}
	.st58{fill:#EE8E6E;}
	.st59{fill:#E8423E;}
	.st60{fill:#ADCFD4;}
	.st61{fill:#EE7488;}
	.st62{fill:#86506E;}
	.st63{fill:#D9CFC3;}
	.st64{fill:#808477;}
	.st65{fill:#EB774A;}
	.st66{fill:#B3C1B1;}
	.st67{fill:#9F573E;}
	.st68{fill:#493944;}
	.st69{fill:#793D45;}
	.st70{fill:#ED9278;}
	.st71{fill:#FBC685;}
	.st72{fill:#B2654B;}
	.st73{fill:#E7E6E6;}
	.st74{fill:#F9B03D;}
	.st75{fill:#C69C6C;}
	.st76{fill:#EDB83C;}
	.st77{fill:#EF7D57;}
	.st78{fill:#6EAA4D;}
	.st79{fill:#F08556;}
	.st80{fill:#D34550;}
	.st81{fill:#E1E2E5;}
	.st82{fill:#F09F56;}
	.st83{fill:#77B4C9;}
	.st84{fill:#CD684D;}
	.st85{fill:#B4B4B4;}
	.st86{fill:#C19446;}
	.st87{fill:#C38FA6;}
	.st88{fill:#D3A698;}
	.st89{fill:#A3A3CD;}
	.st90{fill:#E6C04C;}
	.st91{fill:#C26647;}
	.st92{fill:#CA8399;}
	.st93{fill:#7397A4;}
	.st94{fill:#9F8777;}
	.st95{fill:#AC654E;}
	.st96{fill:#E5874C;}
	.st97{fill:#7AA87A;}
	.st98{fill:#D3AAB1;}
	.st99{fill:#CA8D78;}
	.st100{fill:#8CAAB5;}
	.st101{fill:#A1A0A0;}
	.st102{fill:#32353E;}
	.st103{fill:#537791;}
	.st104{fill:#4C4B3D;}
	.st105{fill:#C1BD99;}
	.st106{fill:#908E60;}
	.st107{fill:#EAB96A;}
	.st108{fill:#B6654F;}
	.st109{fill:#EE9070;}
	.st110{fill:#708772;}
	.st111{fill:#F08219;}
	.st112{fill:#FFD207;}
	.st113{fill:#34B9C5;}
	.st114{fill:#C24E57;}
	.st115{fill:#9A9999;}
	.st116{fill:#90C9BB;}
	.st117{fill:#95B877;}
	.st118{fill:#9BD3D2;}
	.st119{fill:#7AAD9E;}
	.st120{fill:#754D24;}
	.st121{fill:#48AE4D;}
	.st122{fill:#458562;}
	.st123{fill:#B13741;}
	.st124{fill:#544842;}
	.st125{fill:#D39842;}
	.st126{fill:#528E71;}
	.st127{fill:#63A3A4;}
	.st128{fill:#BF924C;}
	.st129{fill-rule:evenodd;clip-rule:evenodd;fill:#BF924C;}
	.st130{fill:#67A07F;}
	.st131{fill:#A67D52;}
</style>
<g>
	<g>
		<path class="st0" d="M148.3,303.9c1.1,0.1,2.1,0.1,3.2,0.2c1,0,2.1,0.1,3.2,0.2c0.2-0.4,0.2-0.8,0.3-1.2c0-0.4,0.1-0.8,0.3-1.2
			c0.4-1.2,1.1-1.8,2.2-1.8c1.3,0,2,0.7,2.2,2c0.2,0.8,0.2,1.7,0.3,2.6c0,0.9,0,1.8-0.2,2.8c-0.2,1.4-1.2,2.1-2.9,2.3
			c-1.3,0.2-2.6,0.2-3.9,0c-5.5-0.2-11,0-16.6,0.7c-0.6,0.1-1.2,0.1-1.7,0.2c-0.5,0-1.1,0-1.7-0.1c-1.5-0.1-2.6-0.5-3.2-1.4
			c-0.6-0.8-0.6-2,0-3.6c1-2.7,2-5.4,3.1-8.1c1-2.7,2-5.4,2.9-8.1c2-5.9,3.9-11.8,5.6-17.7c1.8-5.9,3.4-11.9,4.8-17.8
			c0.6-2.5,1-4.9,1.2-7.4c0.2-2.5-0.1-5-0.8-7.4c-0.2-0.6-0.3-1.3-0.6-2c-0.2-0.7-0.5-1.3-0.9-2c-1.1-2.1-2.8-2.9-5.3-2.4
			c-2,0.3-3.7,1-5,2.2c-1.3,1.2-2.4,2.6-3.3,4.4c-0.2,0.5-0.4,1.1-0.6,1.6c-0.2,0.5-0.4,1.1-0.6,1.7c-0.2,0.4-0.3,0.7-0.6,1
			c-0.2,0.3-0.5,0.4-0.9,0.2c-0.6-0.3-1-0.9-1.2-1.7c-0.2-1.2,0-2.3,0.3-3.5c1.8-6.1,5.7-9.8,11.9-10.9c0.6-0.2,1.2-0.3,1.9-0.3
			c0.7-0.1,1.3-0.1,1.9-0.1c3-0.2,5.7,0.4,8,1.7c2.3,1.3,4.4,3,6.3,5.2c1.5,1.8,2.7,3.7,3.5,5.7c0.8,2,1.3,4.2,1.6,6.4
			c0.5,3.1,0.5,6.3,0.2,9.3c-0.3,3.1-0.9,6.1-1.7,9.2c-1.6,6.1-3.4,12.2-5.4,18.1c-2,5.9-4.2,11.8-6.6,17.6l-1,2.8V303.9z
			 M142.5,304c2.4-5.9,4.6-11.8,6.7-17.6c2.1-5.8,4-11.7,5.8-17.7c0.6-2,1.1-4,1.6-6.2c0.4-2.1,0.8-4.2,1.2-6.3
			c0.4-2.2,0.5-4.4,0.5-6.6c-0.1-2.2-0.4-4.4-1-6.5c-1-3.6-3.1-6.6-6.3-9c-0.1,0.3,0,0.7,0.1,1.3c0.9,2.3,1.5,4.6,1.7,7
			c0.2,2.4,0.2,4.8-0.1,7.3c-0.3,2.2-0.7,4.4-1.2,6.4c-0.5,2.1-1,4.2-1.6,6.3c-1.9,7-3.9,13.9-5.9,20.7c-2,6.8-4.3,13.6-7,20.3
			c-0.1,0.2-0.1,0.6-0.1,1.2c1-0.1,2-0.2,2.9-0.2C140.5,304.3,141.5,304.1,142.5,304z"/>
		<path class="st0" d="M213.6,270.1c0.2,7.3-0.8,14.3-3.2,20.9c-0.8,2.5-1.9,4.8-3.2,7.1c-1.3,2.3-3,4.4-4.9,6.3
			c-3.8,3.6-7.6,5.4-11.6,5.4c-4,0-7.9-1.8-11.8-5.5c-2.5-2.2-4.3-4.8-5.5-7.7c-1.2-2.9-2.1-6-2.6-9.2c-0.7-4.1-1-8.2-0.9-12.3
			c0.1-4.1,0.3-8.2,0.7-12.3c0.3-2.9,0.7-5.8,1.3-8.6c0.6-2.8,1.4-5.6,2.5-8.3c1.5-3.6,3.3-7,5.6-10.2c1.4-1.8,3-3.3,4.7-4.6
			c1.8-1.3,3.6-2.5,5.6-3.6c1.5-0.8,3.1-1.2,4.5-1c1.5,0.2,3,0.7,4.5,1.6c1.1,0.6,2,1.3,2.8,2.2c0.8,0.8,1.6,1.8,2.2,2.8
			c1.8,2.5,3.1,5,4.1,7.7c1,2.7,1.8,5.5,2.5,8.4c0.8,3.5,1.5,6.9,2,10.4C213.6,262.9,213.7,266.5,213.6,270.1z M183.3,243.9
			c0.3-1.3,0.6-2.6,1-3.9c0.3-1.3,0.7-2.6,1.1-3.9c0-0.1-0.1-0.1-0.2-0.1c-0.2,0.3-0.5,0.6-0.8,0.9c-0.3,0.3-0.6,0.7-0.8,1
			c-1.3,1.7-2.4,3.5-3.3,5.4c-0.9,1.9-1.7,3.8-2.4,5.8c-0.8,2.5-1.5,5.1-2,7.7c-0.5,2.6-0.8,5.3-0.9,7.9c-0.3,3.7-0.4,7.3-0.4,11
			c0,3.6,0.4,7.3,1,11c0.5,2.5,1.1,4.9,2,7.2c0.9,2.3,2.2,4.4,4,6.3c0.2,0.2,0.4,0.3,0.6,0.5c0.3,0.2,0.6,0.5,1,0.9
			c-0.9-2.9-1.6-5.7-2-8.5c-0.4-2.7-0.6-5.5-0.6-8.2c0-7.6,0.1-15.2,0.3-22.7c0.2-3.1,0.4-6.2,0.8-9.3
			C182.2,249.9,182.7,246.9,183.3,243.9z M205,290.2c1.2-3.3,2-6.7,2.5-10.1c0.5-3.4,0.8-6.8,0.9-10.3c-0.2-1.5-0.3-2.9-0.3-4.4
			c-0.1-1.5-0.2-2.9-0.3-4.4c-0.3-3.1-0.7-6.1-1.3-9c-0.5-3-1.3-5.9-2.3-8.8c-0.5-1.5-1-3-1.7-4.3c-0.7-1.3-1.5-2.7-2.5-4
			c-0.6-0.8-1.3-1.6-2.1-2.2c-0.8-0.7-1.7-1.1-2.8-1.3c-1.1-0.2-1.8-0.3-2.2-0.1c-0.4,0.2-0.8,0.8-1.2,1.8c-2,4.9-3.4,10.1-4.3,15.7
			c-0.5,3.1-0.8,6.1-1,9.2c-0.2,3-0.4,6.1-0.5,9.3c-0.2,4.2-0.2,8.4-0.2,12.6c0,4.2,0.3,8.4,0.7,12.6c0.2,1.8,0.5,3.5,0.9,5.3
			c0.4,1.8,1,3.5,1.8,5.1c0.6,1.2,1.2,1.9,1.7,2.1c0.5,0.2,1.5,0.1,2.8-0.4c1.1-0.4,2-0.9,2.9-1.6c0.8-0.7,1.6-1.4,2.4-2.2
			c1.4-1.5,2.5-3.2,3.5-4.9C203.4,293.9,204.3,292.1,205,290.2z"/>
		<path class="st0" d="M230.6,304.8c-0.3-12-0.6-23.9-0.8-35.7c-0.2-11.8-0.5-23.7-0.7-35.7c-0.2,0.2-0.3,0.3-0.5,0.3
			c-0.2,0.1-0.4,0.2-0.5,0.3c-1.2,1-2.4,2-3.6,3c-1.2,1-2.3,2-3.5,3c-0.8,0.8-1.8,1.3-2.8,1.6c-0.2,0.1-0.4,0.1-0.7,0
			c-0.3-0.1-0.6-0.2-0.7-0.5c-0.2-0.2-0.2-0.4-0.2-0.7c0-0.3,0-0.6,0.1-0.9c0.2-0.2,0.3-0.5,0.5-0.7c0.2-0.2,0.4-0.5,0.6-0.7
			c1.7-1.5,3.4-3.1,5-4.7c1.6-1.6,3.3-3.2,5-4.8c1.8-1.6,3.8-2.4,6.1-2.3c1.8,0.1,3.5,0.1,5.2,0.1c1.7,0,3.4-0.1,5.2-0.1
			c2,0.1,3.1,1.2,3.3,3.2c0.1,0.4,0.1,0.8,0.1,1.2s0,0.8,0,1.2c0.1,3.4,0.2,6.7,0.2,10c0.1,3.3,0.2,6.6,0.2,9.9
			c0.1,3.7,0.1,7.3,0.2,10.8c0,3.5,0.1,7.1,0.3,10.8c0.2,5.1,0.3,10.1,0.3,15.1c0.1,5,0.2,10,0.3,15.1c0.1,0.2,0.1,0.3,0.1,0.4
			c0,0.1,0,0.3,0.1,0.5c0.4,0.1,0.8,0.1,1.2,0.1c0.4,0,0.9,0,1.3,0c0.6,0.1,1.3,0.1,2,0.1c0.7,0,1.4,0.1,2.1,0.2
			c1.6,0.4,2.4,1.2,2.4,2.5c0,0.6-0.2,1.1-0.6,1.5c-0.4,0.4-1.1,0.7-1.9,0.8c-0.5,0.1-0.9,0.1-1.4,0.2c-0.5,0-1,0.1-1.5,0.1
			c-1.8-0.1-3.6-0.2-5.4-0.2c-1.8-0.1-3.6-0.2-5.5-0.2l-13.5-0.3c-1.4,0-2.6-0.2-3.8-0.5c-1.4-0.2-2-0.9-1.8-2.1
			c0.2-0.6,0.4-1,0.8-1.2c0.4-0.2,0.8-0.3,1.4-0.4c0.8-0.1,1.7-0.2,2.5-0.3C228.7,305,229.6,304.9,230.6,304.8z M234.2,231.2
			c0.7,12.4,1.1,24.6,1.2,36.8c0.1,12.1,0.3,24.4,0.7,36.7h7.6c-0.1-6.1-0.2-12.3-0.4-18.4c-0.2-6.1-0.4-12.2-0.5-18.3
			c-0.2-6.1-0.3-12.2-0.3-18.3c-0.1-6.1,0-12.2,0.1-18.4H234.2z"/>
		<path class="st0" d="M292.3,266.2c3.1,2.9,5.2,6.1,6.4,9.5c1.2,3.4,1.7,7.1,1.5,11.1c-0.2,2.9-0.7,5.7-1.6,8.4
			c-0.9,2.7-2.2,5.2-4,7.6c-2.6,3.5-5.6,5.6-9,6.4c-3.4,0.8-7.1,0.2-11-1.8c-3.4-1.8-5.9-4.1-7.6-7c-1.7-2.9-2.7-6.2-3.1-9.8
			c-0.2-1.7-0.2-3.6,0.1-5.8c0.3-2.1,0.7-4.3,1.3-6.5c0.6-2.2,1.5-4.3,2.5-6.4c1.1-2.1,2.3-4,3.7-5.6v-0.5c-2.7-3.9-4.1-7.9-4.4-12
			c-0.2-4.1,0.5-8.3,2.2-12.7c0.7-1.8,1.5-3.5,2.4-5.2c0.9-1.7,2-3.2,3.4-4.6c0.9-0.9,1.9-1.7,2.9-2.4c1-0.7,2.1-1.2,3.3-1.6
			c1.3-0.4,2.6-0.4,3.8-0.2c1.2,0.3,2.4,0.7,3.6,1.3c1.4,0.8,2.6,1.8,3.6,2.9c1,1.1,1.8,2.4,2.4,3.9c1.9,5.2,2.8,10.3,2.7,15.4
			c-0.1,5-1.7,10-4.8,14.8L292.3,266.2z M275.3,302.3c-0.9-5.5-1.3-10.9-1-16c0.2-2.7,0.4-5.3,0.9-7.9c0.4-2.6,1.1-5.1,2.1-7.6
			c-0.5-0.4-0.9-0.7-1.3-0.9c-0.4-0.2-0.9-0.5-1.4-0.9c-0.2,0.3-0.3,0.6-0.5,0.7c-0.2,0.2-0.3,0.4-0.5,0.5c-3.4,5.8-5,11.8-4.9,18.2
			c0,4.7,1.5,8.7,4.5,12c0.4,0.4,0.7,0.7,1.1,1C274.5,301.6,274.9,301.9,275.3,302.3z M273.1,257.9c0.7,2.9,2.3,5.3,4.9,7.3
			c0.6,0.5,1.2,0.8,1.9,1.2c0.7,0.3,1.4,0.4,2.4,0.2c0.1-0.4,0.1-0.7,0.2-1.1c0-0.3,0.1-0.7,0.1-1.1c0.2-1,0.2-2,0.3-2.9
			c0-0.9,0.1-1.8,0.3-2.8c0.4-3.8,0.7-7.6,0.9-11.3c0.2-3.7,0.1-7.5-0.2-11.3c-0.1-0.6-0.2-1.2-0.3-1.9c-0.2-0.7-0.3-1.3-0.5-2
			c-1.1,0.2-2,0.5-2.6,1c-0.7,0.5-1.3,1.1-2,1.7C272.8,241.5,271,249.2,273.1,257.9z M294.5,290.3c0.8-3.9,0.8-7.6-0.1-11.1
			c-0.9-3.5-2.8-6.7-5.5-9.7c-1.2,0.8-2.5,1.5-3.8,1.9c-1.3,0.4-2.7,0.6-4.3,0.4c-0.3,0.8-0.5,1.3-0.6,1.7c-0.2,1.2-0.4,2.3-0.6,3.5
			c-0.2,1.2-0.3,2.3-0.4,3.5c-0.2,2.6-0.4,5.2-0.6,7.8c-0.2,2.6-0.1,5.2,0.3,7.8c0.2,1.3,0.4,2.6,0.7,3.9c0.3,1.3,0.8,2.5,1.4,3.6
			c0.5,1.1,1.4,1.5,2.5,1.3c1.5-0.2,2.8-0.6,3.9-1.4c1.1-0.8,2-1.7,2.9-2.9c1.2-1.5,2.1-3.1,2.7-4.8
			C293.6,293.9,294.1,292.1,294.5,290.3z M287.6,234.2c1,5.1,1.3,10.1,0.8,15.1c-0.5,5-1,10.1-1.7,15.4c1.2-1.1,2.2-2.2,2.8-3.3
			c0.7-1.2,1.2-2.4,1.6-3.7c0.8-2.5,1.2-5,1.3-7.5c0.1-2.6-0.2-5.1-0.7-7.7c-0.2-1.1-0.4-2.1-0.8-3.1c-0.4-1-0.8-2-1.2-3
			c-0.2-0.7-0.5-1.2-0.7-1.4C288.6,234.8,288.2,234.5,287.6,234.2z"/>
	</g>
	<g>
		<g>
			<path class="st0" d="M332.9,189.2c-0.4-2.7-0.9-5.5-1.4-8.3c-1.2-5.8-2.3-11.2-3.5-16.4c-0.9-4-2-8.1-3-12.1
				c-0.4-1.6-0.8-3.2-1.2-4.7c-0.1-0.3-0.2-0.5-0.3-0.8c0,0-1.4-6.5-1.6-7.9l-0.1-0.7c-0.1-0.8-0.2-1.6-0.3-2.4c0,0-0.6-5.1-0.4-6
				c0.7-3.4-0.7-6.7-3.8-8.5c-1.2-0.7-2.5-1.4-4.3-1.2c-0.8,0.1-1.7,0-1.7,0l-1-1.5c-0.1-0.2-0.2-0.4-0.4-0.6
				c-0.5-0.8-1.1-1.5-1.7-2.2l32.6-16.1c0,0-129.5-35.5-130.4-35.1c-2.7,1-127.2,44.1-127.2,44.1l-5.2,1.9l4.5,2
				c0.3,0.1,0.5,0.2,0.7,0.3c0,0,59.6,23.1,63.4,24.6l-9.8,43.5l78.8,38.6c0,0,19.7-12.9,25.1-16.6c5.1-3.4,10.2-6.8,15.3-10.3
				c6.3-4.2,12.5-8.4,18.8-12.7l7.8-5.2c1.3-0.9,1.8-1.5,1.4-3.3l-0.9-4.3c-0.6-2.9-1.2-5.9-1.9-8.8c-1.1-5.1-2.1-10.3-3.2-15.4
				l-0.9-4.6c-0.2-0.9-0.4-1.7-0.5-2.7l-0.5-2.6c3.6-1.8,7.2-3.6,10.8-5.5l11.9-6c0.2-0.1,0.4-0.2,0.5-0.3l1.6-1.1
				c1.3,0.9,2.6,1.9,3.8,3c0.1,0.1,0.3,0.3,0.5,0.4l1.3,1c-1.1,2.1-1.4,4.6-0.7,6.6c0.6,1.9,1.7,3.3,3.1,4.2c0,0-0.4,9.8-0.1,12.4
				l0.2,1.9l0,0v3.4c0,5.5-0.3,10.4-0.8,15c-0.9,6.9-1.8,13.2-2.7,19.3c-0.9,6.1-2.1,11.9-3.5,17.4c-0.7,2.9-1.5,5.7-2.3,8.6
				c-0.5,1.8-1,3.6-1.4,5.4c-0.7,2.5-1,4.8-1.2,6.9c-0.1,1.8,0.6,2.7,2.3,3.2c0.9,0.2,1.6,0.4,2.4,0.4c0.8,0.1,1.7,0.1,2.5,0.1
				c0.8,0,1.5,0.1,2.3,0.1c1.7,0.1,3.4,0.2,5.1,0.2c2.2,0,4.3-0.1,6.4-0.3c1.9-0.2,3.8-0.5,5.5-1c5.6-1.5,9.1-5.2,10.1-10.8
				c0.4-1.9,0.6-4,0.8-6c0.4-5.9,0-12.3-1.2-19.6C333.2,191.2,333.1,190.2,332.9,189.2z"/>
			<path class="st0" d="M315.3,318.8c-0.5-1.2-1.6-1.8-3-1.5c-0.5,0.1-0.9,0.2-1.4,0.4c-17.2,5.2-34.6,9.3-52.5,10.9
				c-11.5,1-22.9,1.7-34.4,2.1c-13.9,0.5-27.7,0.1-41.5-1c-12.5-1-25-2.1-37.3-4.7c-8.7-1.8-17.6-3-26-6.1c-1.3-0.5-2.5,0-3,1.1
				c-0.5,1.1-0.1,2.3,1.2,3c1.2,0.6,2.4,1.3,3.6,1.5c2.8,0.4,3.7,2.2,4,4.7c0,0.3,0.1,0.7,0.1,1c1.4,8.7,2.9,17.3,4.3,26
				c0.2,0.9,0.4,1.9,0.8,2.8c0.9,1.8,2.9,2.1,4.3,0.7c0.5-0.5,1-1.2,1.4-1.8c4.7-7.7,9.4-15.3,14.2-23c0.3-0.4,0.6-0.9,1.1-1.5
				c0.2,0.9,0.4,1.6,0.6,2.3c1.7,8.8,4.1,17.4,6.9,25.9c0.4,1.2,0.8,2.4,1.5,3.4c1.1,1.6,2.8,1.8,4.3,0.6c0.7-0.6,1.3-1.3,1.7-2
				c5.3-8.1,10.6-16.2,15.9-24.3c0.4-0.6,0.8-1.1,1.3-1.9c0.9,1.7,1.7,3.2,2.4,4.7c3.5,7,6.9,14,10.4,21c0.6,1.1,1.2,2.2,2,3.1
				c1.3,1.6,3.5,1.5,4.8-0.2c0.4-0.6,0.7-1.3,1.1-2c2.7-5.6,5.3-11.3,8-16.9c1.4-2.9,2.9-5.7,4.3-8.6c0.2,0.3,0.5,0.5,0.6,0.7
				c3.7,7.4,7.4,14.9,11.1,22.3c0.7,1.3,1.3,2.6,2.1,3.8c1.4,2,3.8,1.9,5.1-0.2c0.4-0.6,0.6-1.3,0.8-1.9c1.5-3.7,2.9-7.5,4.4-11.2
				c1.7-4.2,3.4-8.5,5.2-12.7c0.2-0.4,0.4-0.8,0.6-1.3c0.4,0.4,0.6,0.7,0.8,1c3.7,5,7.3,10.1,11,15.1c1.7,2.3,3.5,4.7,5.4,6.9
				c1.9,2.3,4.4,1.8,5.5-1c0.3-0.8,0.6-1.7,0.9-2.5c1.4-4.4,2.7-8.9,4.1-13.3c1-3,2-6,3.1-9.3c0.5,0.5,0.7,0.7,0.8,0.9
				c4.2,5.5,8.4,11,12.7,16.4c1.1,1.4,2.3,2.6,3.6,3.7c1.8,1.5,4,1,4.9-1.2c0.3-0.8,0.6-1.7,0.8-2.6c2.4-8.5,4.8-17,7.1-25.6
				c0.5-1.8,1.3-2.7,3.1-3c1.3-0.2,2.5-0.7,3.7-1.2C315.3,321.4,315.8,320.1,315.3,318.8z"/>
		</g>
		<g>
			<g>
				<path class="st90" d="M129.4,172.3c-0.1-0.1-0.2-0.1-0.4-0.1c-1.8-0.6-3.6-1.2-5.4-1.8c-0.5-0.2-0.9-0.3-1.5-0.5
					c0.1-1,0.1-2,0.2-3c0.2-1.6,0.6-3.2,0.8-4.8c0.2-1.3-0.3-2.1-1.5-2.5c-0.4-0.1-0.8-0.2-1.2-0.3c-2.9-0.7-5.9-1.3-8.8-2
					c-0.4-0.1-0.8-0.2-1.3-0.4c0-0.4-0.1-0.8,0-1.2c0.3-1.7,0.5-3.5,0.8-5.2c0.3-2.2,0.7-4.5,1-6.7c0.2-1.3-0.4-2.1-1.7-2.5
					c-0.4-0.1-0.8-0.2-1.1-0.3c-1.3-0.2-2.6-0.5-3.9-0.7c-2.5-0.4-5.1-0.8-7.7-1.2c-0.9-0.1-1.7-0.4-2.5-0.6c0-0.2,0-0.4,0-0.5
					c-0.1-3.2-0.2-6.3-0.3-9.5c0-1-0.1-2-0.1-3c-0.1-1.2-0.7-2-1.8-2.3c-0.9-0.3-1.8-0.5-2.7-0.6c-5.2-0.7-10.3-1.7-15.3-3
					c-0.3-0.1-0.6-0.2-1-0.2c-0.8-0.1-1.6,0.5-1.8,1.2c-0.2,0.8,0.2,1.6,1,1.9c0.3,0.1,0.6,0.2,0.9,0.3c5.1,1.3,10.3,2.3,15.6,3
					c0.6,0.1,1.1,0.2,1.7,0.3c0,0.3,0.1,0.5,0.1,0.7c0.1,3.8,0.2,7.6,0.3,11.4c0.1,1.9,0.7,2.9,2.6,3.4c1.8,0.5,3.6,0.8,5.4,1.1
					c2.6,0.5,5.2,0.8,7.7,1.3c0.4,0.1,0.7,0.2,1.2,0.3c-0.3,1.9-0.6,3.7-0.9,5.4c-0.4,2-0.8,3.9-0.9,5.9c0,0.9,0.1,1.8,0.3,2.7
					c0.2,0.8,0.8,1.3,1.6,1.6c0.3,0.1,0.7,0.2,1,0.3c2.9,0.7,5.8,1.3,8.7,2c0.4,0.1,0.7,0.2,1.1,0.3c-0.1,0.5-0.2,0.9-0.2,1.3
					c-0.4,2-0.7,3.9-0.6,5.9c0.1,1.8,0.7,2.8,2.4,3.4c0.2,0.1,0.5,0.2,0.8,0.2c2,0.5,3.9,1.1,5.9,1.6c0.2,0.1,0.4,0.1,0.7,0.2
					c0.9,0.2,1.6-0.3,1.8-1.1C130.6,173.4,130.2,172.7,129.4,172.3z"/>
				<path class="st90" d="M312.8,285.6c0.1,0.1,0.2,0.1,0.4,0.1c1.8,0.6,3.6,1.2,5.4,1.8c0.5,0.2,0.9,0.3,1.5,0.5
					c-0.1,1-0.1,2-0.2,3c-0.2,1.6-0.6,3.2-0.8,4.8c-0.2,1.3,0.3,2.1,1.5,2.5c0.4,0.1,0.8,0.2,1.2,0.3c2.9,0.7,5.9,1.3,8.8,2
					c0.4,0.1,0.8,0.2,1.3,0.4c0,0.4,0.1,0.8,0,1.2c-0.3,1.7-0.5,3.5-0.8,5.2c-0.3,2.2-0.7,4.5-1,6.7c-0.2,1.3,0.4,2.1,1.7,2.5
					c0.4,0.1,0.8,0.2,1.1,0.3c1.3,0.2,2.6,0.5,3.9,0.7c2.5,0.4,5.1,0.8,7.7,1.2c0.9,0.1,1.7,0.4,2.5,0.6c0,0.2,0,0.4,0,0.5
					c0.1,3.2,0.2,6.3,0.3,9.5c0,1,0.1,2,0.1,3c0.1,1.2,0.7,2,1.8,2.3c0.9,0.3,1.8,0.5,2.7,0.6c5.2,0.7,10.3,1.7,15.3,3
					c0.3,0.1,0.6,0.2,1,0.2c0.8,0.1,1.6-0.5,1.8-1.2c0.2-0.8-0.2-1.6-1-1.9c-0.3-0.1-0.6-0.2-0.9-0.3c-5.1-1.3-10.3-2.3-15.6-3
					c-0.6-0.1-1.1-0.2-1.7-0.3c0-0.3-0.1-0.5-0.1-0.7c-0.1-3.8-0.2-7.6-0.3-11.4c-0.1-1.9-0.7-2.9-2.6-3.4c-1.8-0.5-3.6-0.8-5.4-1.1
					c-2.6-0.5-5.2-0.8-7.7-1.3c-0.4-0.1-0.7-0.2-1.2-0.3c0.3-1.9,0.6-3.7,0.9-5.4c0.4-2,0.8-3.9,0.9-5.9c0-0.9-0.1-1.8-0.3-2.7
					c-0.2-0.8-0.8-1.3-1.6-1.6c-0.3-0.1-0.7-0.2-1-0.3c-2.9-0.7-5.8-1.3-8.7-2c-0.4-0.1-0.7-0.2-1.1-0.3c0.1-0.5,0.2-0.9,0.2-1.3
					c0.4-2,0.7-3.9,0.6-5.9c-0.1-1.8-0.7-2.8-2.4-3.4c-0.2-0.1-0.5-0.2-0.8-0.2c-2-0.5-3.9-1.1-5.9-1.6c-0.2-0.1-0.4-0.1-0.7-0.2
					c-0.9-0.2-1.6,0.3-1.8,1.1C311.6,284.6,312,285.2,312.8,285.6z"/>
			</g>
			<g>
				<g>
					<path class="st86" d="M88.9,188.6c4.2,1.8,8.5,3.6,12.7,5.4c3.8,1.6,7.6,3.2,11.4,4.9c5,2.1,9.9,4.2,14.9,6.3
						c2.9,1.2,5.8,2.5,8.7,3.7c1.5,0.6,3,1.1,4.5,1.6c0.4,0.1,0.8,0.2,1.3,0.2c0.7,0,1.2-0.4,1.5-1c0.3-0.6,0.1-1.1-0.3-1.5
						c-0.2-0.3-0.5-0.5-0.8-0.8c-6.3-5.8-12.6-11.6-18.9-17.4c-8.5-7.7-17-15.5-25.6-23.2c-0.4-0.3-0.7-0.7-1.2-0.9
						c-0.6-0.4-1.2-0.3-1.7,0.2c-0.4,0.3-0.7,0.7-1,1.1c-1.4,2-2.7,4.1-4,6.1c-1.7,2.6-3.4,5.3-5.1,7.9c-0.4,0.6-0.8,1.3-1.1,2
						c-0.2,0.4-0.3,0.9-0.4,1.4c-0.1,0.9,0.3,1.6,1.2,2C86.3,187.4,87.6,187.9,88.9,188.6C88.9,188.5,88.9,188.6,88.9,188.6z"/>
					<path class="st86" d="M129.2,213.1c-0.6-0.1-1.4-0.3-2.2-0.4c-4.9-0.5-9.8-1-14.7-1.3c-8.7-0.6-17.4-1-26.2-1.4
						c-0.2,0-0.3,0-0.5,0c-1,0-1.4,0.3-1.6,1.3c-0.1,0.7-0.2,1.4-0.2,2.1c0,1.7,0.1,3.5,0.3,5.2c0.1,1.1,0.6,1.5,1.6,1.6
						c0.9,0.1,1.9,0.1,2.8,0c5.2-0.5,10.4-1,15.6-1.5c6.8-0.7,13.5-1.3,20.3-2c1.1-0.1,2.2-0.3,3.3-0.4c0.5-0.1,1-0.2,1.5-0.4
						c0.7-0.3,1.1-0.8,1.1-1.4C130.4,213.8,129.9,213.5,129.2,213.1z"/>
				</g>
				<g>
					<path class="st86" d="M362.8,277.5c-4.2-1.8-8.5-3.6-12.7-5.4c-3.8-1.6-7.6-3.2-11.4-4.9c-5-2.1-9.9-4.2-14.9-6.3
						c-2.9-1.2-5.8-2.5-8.7-3.7c-1.5-0.6-3-1.1-4.5-1.6c-0.4-0.1-0.8-0.2-1.3-0.2c-0.7,0-1.2,0.4-1.5,1c-0.3,0.6-0.1,1.1,0.3,1.5
						c0.2,0.3,0.5,0.5,0.8,0.8c6.3,5.8,12.6,11.6,18.9,17.4c8.5,7.7,17,15.5,25.6,23.2c0.4,0.3,0.7,0.7,1.2,0.9
						c0.6,0.4,1.2,0.3,1.7-0.2c0.4-0.3,0.7-0.7,1-1.1c1.4-2,2.7-4.1,4-6.1c1.7-2.6,3.4-5.3,5.1-7.9c0.4-0.6,0.8-1.3,1.1-2
						c0.2-0.4,0.3-0.9,0.4-1.4c0.1-0.9-0.3-1.6-1.2-2C365.3,278.7,364,278.1,362.8,277.5C362.7,277.5,362.7,277.5,362.8,277.5z"/>
					<path class="st86" d="M322.4,252.9c0.6,0.1,1.4,0.3,2.2,0.4c4.9,0.5,9.8,1,14.7,1.3c8.7,0.6,17.4,1,26.2,1.4c0.2,0,0.3,0,0.5,0
						c1,0,1.4-0.3,1.6-1.3c0.1-0.7,0.2-1.4,0.2-2.1c0-1.7-0.1-3.5-0.3-5.2c-0.1-1.1-0.6-1.5-1.6-1.6c-0.9-0.1-1.9-0.1-2.8,0
						c-5.2,0.5-10.4,1-15.6,1.5c-6.8,0.7-13.5,1.3-20.3,2c-1.1,0.1-2.2,0.3-3.3,0.4c-0.5,0.1-1,0.2-1.5,0.4
						c-0.7,0.3-1.1,0.8-1.1,1.4C321.2,252.2,321.7,252.6,322.4,252.9z"/>
				</g>
			</g>
			<g>
				<polygon class="st90" points="86.1,244.8 101,236.9 98.2,253.5 110.2,265.3 93.5,267.7 86.1,282.9 78.6,267.7 61.9,265.3 
					74,253.5 71.1,236.9 				"/>
				<polygon class="st90" points="94.3,305.5 105.7,309.8 95.3,316.3 94.8,328.5 85.4,320.6 73.6,323.9 78.2,312.5 71.5,302.3 
					83.7,303.2 91.3,293.6 				"/>
				<polygon class="st90" points="122.5,282.4 115.8,281.2 113,275 109.8,281 103.1,281.7 107.8,286.6 106.4,293.3 112.5,290.3 
					118.4,293.7 117.5,286.9 				"/>
			</g>
		</g>
	</g>
</g>
</svg>
